<svg xmlns="http://www.w3.org/2000/svg" viewBox="0 0 354.71 77.28"><defs><style>.cls-1{fill:#009fdb;}.cls-2{fill:#fff;}</style></defs><title>Asset 2</title><g id="Layer_2" data-name="Layer 2"><g id="Layer_1-2" data-name="Layer 1"><path class="cls-1" d="M58.41,5.45a38.59,38.59,0,0,0-39.81.16c-1.74,1.07-2.72,1.93-2.72,3,0,3.26,7.61,6.76,21.12,6.76s23.74-3.84,23.74-7.53C60.74,7,60,6.38,58.41,5.45Zm5.75,4.29a1.56,1.56,0,0,1,.24.89c0,4.29-13.13,11.89-34,11.89-15.36,0-18.24-5.7-18.24-9.33a6.27,6.27,0,0,1,1.59-4c.06-.08,0-.11-.06-.05a38.78,38.78,0,0,0-5.44,5.65A4.91,4.91,0,0,0,7,17.17c0,7.51,18.83,13,36.44,13,18.76,0,27.14-6.13,27.14-11.51,0-1.92-.75-3-2.66-5.23a45.4,45.4,0,0,0-3.67-3.71C64.16,9.64,64.12,9.68,64.16,9.74ZM3.73,22.07a38.29,38.29,0,0,0-2.76,8,2.57,2.57,0,0,0,.2,1.87C3.53,37,15.52,45,43.49,45,60.55,45,73.81,40.84,76,33.18a9.09,9.09,0,0,0-.09-4.9,37.42,37.42,0,0,0-2.53-6.68c0-.06-.08-.05-.07,0,.33,10-27.64,16.51-41.76,16.51-15.29,0-28-6.1-28-13.79a9.33,9.33,0,0,1,.34-2.25C3.82,22,3.76,22,3.73,22.07ZM30.87,54.13c-19.78,0-29.1-9.21-30.79-15.5,0-.09-.08-.07-.08,0A38.34,38.34,0,0,0,.58,45.3a7.76,7.76,0,0,0,1.94,3.37c4.79,5,16.73,12,37.41,12,28.17,0,34.61-9.39,35.93-12.48.94-2.21,1.43-6.2,1.43-9.55,0-.81,0-1.46-.05-2.1,0-.1-.06-.11-.08,0C75.74,44.09,51.67,54.13,30.87,54.13Zm10.39,17c9.51,0,20-2.59,26.21-7.73a20.86,20.86,0,0,0,4.8-5.76,36.82,36.82,0,0,0,2.33-4.83c0-.08,0-.12-.08,0-5.81,8.56-22.64,13.89-40,13.89C22.22,66.68,9,62.75,3.83,55.25c-.05-.07-.1,0-.07,0C8.58,65.54,23.2,71.14,41.26,71.14Zm-26.32-2A38.62,38.62,0,0,0,64.1,67.7c.08-.07,0-.12,0-.07-3,2-11.74,6.48-25.42,6.48-11.89,0-19.4-2.65-23.64-5C14.92,69.05,14.89,69.11,14.95,69.16Z"/><path class="cls-2" d="M104.53,23.14h5.15l11.72,31.08h-5.46l-2.58-7.42h-12.7l-2.53,7.42H92.81Zm-2.31,19.23h9.64l-4.84-14Z"/><path class="cls-2" d="M127.09,27.8h-9.81V23.14H142V27.8H132.2V54.22h-5.11Z"/><path class="cls-2" d="M150.94,54.71a10.29,10.29,0,0,1-7-2.26,7.53,7.53,0,0,1-2.62-6,8,8,0,0,1,1.73-5,15,15,0,0,1,5.15-4.06,18.56,18.56,0,0,1-3-3.91,7.46,7.46,0,0,1-.82-3.46,6.71,6.71,0,0,1,2.42-5.35,10.58,10.58,0,0,1,12.35-.16,6.27,6.27,0,0,1,2.29,5.06q0,4.49-6.93,8.21l5.77,6.08A31.87,31.87,0,0,0,162.08,41l1.82-3.42h4.62l-2.62,4.8q-1,1.91-2.66,4.35l7.33,7.5h-6l-4-4.13a13.35,13.35,0,0,1-4.35,3.49A12,12,0,0,1,150.94,54.71Zm.58-4a7.76,7.76,0,0,0,6.22-3.29l-7.06-7.37a12.28,12.28,0,0,0-3.4,2.86A5.09,5.09,0,0,0,146.18,46a4.31,4.31,0,0,0,1.44,3.38A5.62,5.62,0,0,0,151.51,50.71Zm-2.58-20.78a4.42,4.42,0,0,0,.6,2.24,20,20,0,0,0,2.55,3.13,15.37,15.37,0,0,0,3.71-2.8,4,4,0,0,0,1.13-2.66,3.12,3.12,0,0,0-1-2.44,4,4,0,0,0-2.78-.93,4.59,4.59,0,0,0-3,1A3.1,3.1,0,0,0,148.94,29.93Z"/><path class="cls-2" d="M176.65,27.8h-9.81V23.14h24.73V27.8h-9.81V54.22h-5.11Z"/><path class="cls-2" d="M203.16,23.14H213.9q4.57,0,7,2.11a7.62,7.62,0,0,1,2.44,6.1A7.27,7.27,0,0,1,222,35.66a7.13,7.13,0,0,1-3.64,2.68,7,7,0,0,1,4.35,2.49,7.84,7.84,0,0,1,1.55,5,8.19,8.19,0,0,1-1.2,4.45,7.68,7.68,0,0,1-3.33,2.91,11.47,11.47,0,0,1-4.93,1H203.16Zm2.31,2.13V37.48h8.44a7.65,7.65,0,0,0,5.22-1.62A5.69,5.69,0,0,0,221,31.35a5.61,5.61,0,0,0-1.84-4.51,7.79,7.79,0,0,0-5.22-1.58Zm0,14.34V52.09h9.33a7.6,7.6,0,0,0,5.2-1.64,5.83,5.83,0,0,0,1.87-4.62q0-6.22-7.95-6.22Z"/><path class="cls-2" d="M246,31.31V54.22h-1.82l-.36-2.84a13.11,13.11,0,0,1-8.35,3.29,7.17,7.17,0,0,1-5.77-2.29q-2-2.29-2-6.77V31.31H230V45.38q0,7.19,6,7.19a12,12,0,0,0,7.77-3.24v-18Z"/><path class="cls-2" d="M256.93,54.66a16.08,16.08,0,0,1-4.2-.51A14.24,14.24,0,0,1,249,52.53l.75-1.82a14.82,14.82,0,0,0,7,2,7.46,7.46,0,0,0,4.44-1.13,3.75,3.75,0,0,0,1.55-3.22,3.47,3.47,0,0,0-1.22-2.78,12.54,12.54,0,0,0-4.33-2l-1.2-.36a11.64,11.64,0,0,1-4.91-2.46,5.19,5.19,0,0,1-1.44-3.84,5.37,5.37,0,0,1,2.06-4.35,8.12,8.12,0,0,1,5.31-1.69,14.72,14.72,0,0,1,7.28,1.91l-.71,1.78A14,14,0,0,0,257,32.86a5.87,5.87,0,0,0-3.69,1.07A3.41,3.41,0,0,0,252,36.77a3.61,3.61,0,0,0,.47,1.89,4.23,4.23,0,0,0,1.51,1.4,12.65,12.65,0,0,0,2.86,1.16l1.2.35a13.75,13.75,0,0,1,5.46,2.6,5.22,5.22,0,0,1,1.6,4,5.73,5.73,0,0,1-2.2,4.73A9.24,9.24,0,0,1,256.93,54.66Z"/><path class="cls-2" d="M268.39,24a1.52,1.52,0,0,1,.47-1.15,1.9,1.9,0,0,1,2.44,0,1.66,1.66,0,0,1,0,2.31,1.9,1.9,0,0,1-2.44,0A1.52,1.52,0,0,1,268.39,24Zm.58,7.33h2.22V54.22H269Z"/><path class="cls-2" d="M276.43,54.22V31.31h1.82l.31,2.84A13.52,13.52,0,0,1,287,30.86a7.24,7.24,0,0,1,5.79,2.29q2,2.29,2,6.77v14.3h-2.22V40.14q0-7.19-6.08-7.19a11.85,11.85,0,0,0-7.86,3.24v18Z"/><path class="cls-2" d="M309.07,54.66a11.14,11.14,0,0,1-6-1.55,10.34,10.34,0,0,1-3.89-4.24,13.37,13.37,0,0,1-1.35-6.11,13.31,13.31,0,0,1,1.42-6.24,10.53,10.53,0,0,1,3.77-4.2,9.56,9.56,0,0,1,5.15-1.47,9.16,9.16,0,0,1,5,1.38A9,9,0,0,1,316.57,36a12.34,12.34,0,0,1,1.16,5.42q0,1-.09,2h-17.5a10.82,10.82,0,0,0,1.33,4.91,8.45,8.45,0,0,0,3.17,3.24,8.73,8.73,0,0,0,4.42,1.13,15.28,15.28,0,0,0,3.86-.42,14,14,0,0,0,3.38-1.44l.8,1.69a13.5,13.5,0,0,1-3.71,1.67A16.66,16.66,0,0,1,309.07,54.66Zm-.84-21.8A7.09,7.09,0,0,0,304.29,34a8.3,8.3,0,0,0-2.82,3.11,11.36,11.36,0,0,0-1.29,4.42h15.28v-.36a10,10,0,0,0-.93-4.35,6.79,6.79,0,0,0-2.55-3A7,7,0,0,0,308.22,32.86Z"/><path class="cls-2" d="M328.25,54.66a16.08,16.08,0,0,1-4.2-.51,14.24,14.24,0,0,1-3.71-1.62l.75-1.82a14.82,14.82,0,0,0,7,2,7.46,7.46,0,0,0,4.44-1.13,3.75,3.75,0,0,0,1.55-3.22,3.47,3.47,0,0,0-1.22-2.78,12.54,12.54,0,0,0-4.33-2l-1.2-.36a11.64,11.64,0,0,1-4.91-2.46A5.19,5.19,0,0,1,321,36.9a5.37,5.37,0,0,1,2.06-4.35,8.12,8.12,0,0,1,5.31-1.69,14.72,14.72,0,0,1,7.28,1.91L335,34.55a14,14,0,0,0-6.62-1.69,5.87,5.87,0,0,0-3.69,1.07,3.41,3.41,0,0,0-1.38,2.84,3.61,3.61,0,0,0,.47,1.89,4.23,4.23,0,0,0,1.51,1.4,12.65,12.65,0,0,0,2.86,1.16l1.2.35a13.75,13.75,0,0,1,5.46,2.6,5.22,5.22,0,0,1,1.6,4,5.73,5.73,0,0,1-2.2,4.73A9.24,9.24,0,0,1,328.25,54.66Z"/><path class="cls-2" d="M346.59,54.66a16.08,16.08,0,0,1-4.2-.51,14.24,14.24,0,0,1-3.71-1.62l.75-1.82a14.82,14.82,0,0,0,7,2,7.46,7.46,0,0,0,4.44-1.13,3.75,3.75,0,0,0,1.55-3.22,3.47,3.47,0,0,0-1.22-2.78,12.54,12.54,0,0,0-4.33-2l-1.2-.36a11.64,11.64,0,0,1-4.91-2.46,5.19,5.19,0,0,1-1.44-3.84,5.37,5.37,0,0,1,2.06-4.35,8.12,8.12,0,0,1,5.31-1.69A14.72,14.72,0,0,1,354,32.77l-.71,1.78a14,14,0,0,0-6.62-1.69A5.87,5.87,0,0,0,343,33.93a3.41,3.41,0,0,0-1.38,2.84,3.61,3.61,0,0,0,.47,1.89,4.23,4.23,0,0,0,1.51,1.4,12.65,12.65,0,0,0,2.86,1.16l1.2.35a13.75,13.75,0,0,1,5.46,2.6,5.22,5.22,0,0,1,1.6,4,5.73,5.73,0,0,1-2.2,4.73A9.24,9.24,0,0,1,346.59,54.66Z"/></g></g></svg>