<svg id="final" xmlns="http://www.w3.org/2000/svg" viewBox="0 0 407.72 121.27"><defs><style>.cls-1{fill:none;stroke-miterlimit:3.86;stroke-width:0.43px;}.cls-1,.cls-4{stroke:#1d1d1b;}.cls-2,.cls-3{fill:#0086cd;}.cls-3{fill-rule:evenodd;}.cls-4{fill:#1d1d1b;stroke-miterlimit:10;stroke-width:0.5px;}</style></defs><path class="cls-1" d="M289.58,331.83h21.78l-61.19-96.15-10.89,17.11,50.3,79Zm-43-56.23-10.89-17.11-62.26,97.84h21.78l51.37-80.73Zm-44.11,80.73H327L315.26,338H214.12l-11.69,18.37Z" transform="translate(-173 -235.28)"/><polygon class="cls-2" points="109.32 96.56 77.17 46.03 45.02 96.56 109.32 96.56 109.32 96.56"/><polygon class="cls-2" points="249.74 80.27 249.73 71.05 276.62 71.05 276.62 55.85 250.24 55.85 250.24 47.46 281.2 47.46 281.22 31.36 229.18 31.35 229.18 96.51 281.22 96.51 281.22 80.27 249.74 80.27 249.74 80.27"/><polygon class="cls-2" points="327.27 65.56 306.82 31.35 285.88 31.35 285.88 96.51 306.7 96.51 306.7 62.99 328.13 96.51 348 96.51 348 31.35 327.27 31.35 327.27 65.56 327.27 65.56"/><polygon class="cls-2" points="407.65 31.35 352.68 31.35 352.68 47.42 382.33 47.44 352.68 80.25 352.68 96.51 407.65 96.51 407.65 80.26 376.45 80.24 407.65 47.42 407.65 31.35 407.65 31.35"/><path class="cls-3" d="M358.78,316.69h13.6c3.12,0,5.29-.52,6.52-1.58a5.73,5.73,0,0,0,1.83-4.58,5.38,5.38,0,0,0-1.83-4.33c-1.23-1.05-3.35-1.57-6.39-1.57H358.78v12.06Zm0-23.93h9.66q4.69,0,6.52-1.58a5.7,5.7,0,0,0,1.84-4.58,5.38,5.38,0,0,0-1.84-4.34q-1.83-1.56-6.38-1.56h-9.8v12.06Zm-21.15-26.12h36.59c6.43,0,12.65,1.28,15.81,4.86A17.91,17.91,0,0,1,394.34,282c.32,3.84-.17,8.41-2.57,11a21.31,21.31,0,0,1-5.5,4.21c5.54.5,7.67,4.2,8.7,5.57,2.16,2.88,2.71,7.82,2.5,10.44-.34,4.24-.68,6.3-2.63,9.33a17.54,17.54,0,0,1-6.59,6.43,22.11,22.11,0,0,1-7.81,2.14,74.78,74.78,0,0,1-9.23.6H337.63V266.64Z" transform="translate(-173 -235.28)"/><path class="cls-4" d="M347.42,356h-2.74V340.92h-6.8v-2.05h16.38v2.05h-6.84Z" transform="translate(-173 -235.28)"/><path class="cls-4" d="M374.88,347.47a8.58,8.58,0,0,1,2.44-6.56c1.63-1.53,3.95-2.3,6.94-2.3s5.31.76,6.93,2.29a8.64,8.64,0,0,1,2.42,6.57,8.47,8.47,0,0,1-2.44,6.5c-1.62,1.53-3.93,2.29-6.91,2.29a9.74,9.74,0,0,1-6.92-2.31A8.44,8.44,0,0,1,374.88,347.47Zm2.93-.11a7.3,7.3,0,0,0,1.67,5.13,6.14,6.14,0,0,0,4.74,1.8,6.2,6.2,0,0,0,4.77-1.77,8.78,8.78,0,0,0,0-10.25,7.27,7.27,0,0,0-9.52,0A7.23,7.23,0,0,0,377.81,347.36Z" transform="translate(-173 -235.28)"/><path class="cls-4" d="M417,347.47a8.61,8.61,0,0,1,2.44-6.56q2.44-2.3,6.95-2.3c3,0,5.3.76,6.92,2.29a8.64,8.64,0,0,1,2.42,6.57,8.47,8.47,0,0,1-2.44,6.5q-2.43,2.29-6.9,2.29a9.72,9.72,0,0,1-6.92-2.31A8.41,8.41,0,0,1,417,347.47Zm2.94-.11a7.3,7.3,0,0,0,1.66,5.13,6.14,6.14,0,0,0,4.74,1.8,6.21,6.21,0,0,0,4.78-1.77,8.76,8.76,0,0,0,0-10.25,7.27,7.27,0,0,0-9.52,0A7.23,7.23,0,0,0,419.94,347.36Z" transform="translate(-173 -235.28)"/><path class="cls-4" d="M459.86,356v-17.1h2.71v15.06h9.34v2Z" transform="translate(-173 -235.28)"/><path class="cls-4" d="M498,356h-2.74v-17.1H498Z" transform="translate(-173 -235.28)"/><path class="cls-4" d="M522.94,356v-17.1h3.91l9.71,13.94V338.87H539V356h-3.37l-10.2-14.51V356Z" transform="translate(-173 -235.28)"/><path class="cls-4" d="M580.46,355.18a34.72,34.72,0,0,1-3.8.83,22.7,22.7,0,0,1-3.41.28,11,11,0,0,1-7.34-2.29,7.69,7.69,0,0,1-2.7-6.2,8.67,8.67,0,0,1,2.65-6.76q2.64-2.43,7.39-2.43a9.64,9.64,0,0,1,5.2,1.21,3.93,3.93,0,0,1,2,3.3h-3a2.4,2.4,0,0,0-1.34-2,6.09,6.09,0,0,0-3.25-.79,6.52,6.52,0,0,0-5,1.9,7.33,7.33,0,0,0-1.8,5.26,6.63,6.63,0,0,0,1.91,5.05,7.46,7.46,0,0,0,5.36,1.81,12.79,12.79,0,0,0,1.87-.15c.67-.1,1.44-.25,2.32-.46v-5.09h-4.27v-1.93h7.18Z" transform="translate(-173 -235.28)"/></svg>