<svg id="Layer_1" data-name="Layer 1" xmlns="http://www.w3.org/2000/svg" viewBox="0 0 413 115"><defs><style>.cls-1,.cls-2{fill:#1965a3;}.cls-1{fill-rule:evenodd;}</style></defs><title>gf_ms</title><polygon class="cls-1" points="0 60.96 9 61 9 70 17 70 17 61 26 61 26 53 17 53 17 44 9 44 9 53 0 53.09 0 60.96"/><polygon class="cls-1" points="107 60.96 116 61 116 70 124 70 124 61 133 61 133 53 124 53 124 44 116 44 116 53 107 53.09 107 60.96"/><path class="cls-1" d="M69.6,45.64l-7.14,4.14c-.22-.3-.72-.89-1.48-1.76a12.89,12.89,0,0,0-9.2-3.52,11.64,11.64,0,0,0-7.71,2.73q-4.27,3.57-4.28,10.1A14.19,14.19,0,0,0,42,65.5a11.39,11.39,0,0,0,10,5.23q5.84,0,8.91-4a22,22,0,0,0,1.72-3H51.9V56.25l20.22.06q0,8.85-3.94,14.24-5.84,8-16.51,8A24.6,24.6,0,0,1,46.76,78a18.45,18.45,0,0,1-12-7.95,21.44,21.44,0,0,1-3.6-12.48,23.81,23.81,0,0,1,.57-5.51A20.78,20.78,0,0,1,36.36,43a18.82,18.82,0,0,1,3-2.66A20.53,20.53,0,0,1,51.9,36.5,21.56,21.56,0,0,1,64.06,40a20.16,20.16,0,0,1,3.66,3.12A19.59,19.59,0,0,1,69.6,45.64Z"/><polygon class="cls-1" points="77.54 37.47 100.96 37.47 100.96 45.07 86.34 45.07 86.34 53 101 53 101 61 86.34 61 86.34 77.53 77.54 77.53 77.54 37.47"/><path class="cls-2" d="M183.35,55.43a14.26,14.26,0,0,1,.41-4.41,5.19,5.19,0,0,1,5.36-3.66,5.35,5.35,0,0,1,5.2,3.1.23.23,0,0,1-.07.33l-1.38.66a.21.21,0,0,1-.32-.11,3.53,3.53,0,0,0-3.43-2.07,3.23,3.23,0,0,0-3.38,2.32,12.53,12.53,0,0,0-.32,3.84,12.48,12.48,0,0,0,.32,3.84,3.22,3.22,0,0,0,3.38,2.32,3.31,3.31,0,0,0,3.36-2.25,8.41,8.41,0,0,0,.3-2.46.13.13,0,0,0-.14-.14h-3a.22.22,0,0,1-.23-.23V55.18a.22.22,0,0,1,.23-.23h5a.22.22,0,0,1,.23.23v1.17a13.13,13.13,0,0,1-.4,3.45,5.71,5.71,0,0,1-10.67.05A14.38,14.38,0,0,1,183.35,55.43Z"/><path class="cls-2" d="M198.14,47.84a.22.22,0,0,1,.23-.23h9.4a.22.22,0,0,1,.23.23v1.45a.22.22,0,0,1-.23.23h-7.45c-.09,0-.13,0-.13.14v4.76c0,.09,0,.14.13.14h6.33a.22.22,0,0,1,.23.23v1.45a.22.22,0,0,1-.23.23h-6.33c-.09,0-.13,0-.13.13V63a.22.22,0,0,1-.23.23h-1.59a.22.22,0,0,1-.23-.23Z"/><path class="cls-2" d="M216.45,47.84a.22.22,0,0,1,.23-.23h1.49a.35.35,0,0,1,.37.23l4.67,10.53h.07l4.57-10.53a.36.36,0,0,1,.37-.23h1.49a.22.22,0,0,1,.24.23V63a.22.22,0,0,1-.24.23h-1.44A.22.22,0,0,1,228,63V52.14H228l-3.89,8.6a.39.39,0,0,1-.41.28h-.92a.41.41,0,0,1-.44-.28l-3.89-8.6h-.06V63a.22.22,0,0,1-.23.23h-1.45a.22.22,0,0,1-.23-.23Z"/><path class="cls-2" d="M240.43,63.25a.21.21,0,0,1-.22-.23v-1h0a3.59,3.59,0,0,1-3.26,1.45c-2.1,0-3.71-1.08-3.71-3.31s1.61-3.4,4.3-3.4H240a.13.13,0,0,0,.14-.14v-.8c0-1.52-.6-2.17-2.65-2.17a4.32,4.32,0,0,0-2.66.78c-.12.1-.26.1-.32,0l-.63-1.06a.24.24,0,0,1,0-.32A6.15,6.15,0,0,1,237.7,52c3.13,0,4.32,1,4.32,3.75V63a.22.22,0,0,1-.23.23Zm-.27-3.56V58.47a.12.12,0,0,0-.14-.14h-2.21c-1.9,0-2.73.55-2.73,1.79s.83,1.73,2.3,1.73C239.1,61.85,240.16,61,240.16,59.69Z"/><path class="cls-2" d="M245.38,55a4.27,4.27,0,0,1,4.35-3,4.42,4.42,0,0,1,3.77,1.86c.07.12.07.21-.07.33l-1,.82c-.12.1-.23.1-.32,0a2.74,2.74,0,0,0-2.37-1.2,2.38,2.38,0,0,0-2.46,1.73,7.12,7.12,0,0,0-.26,2.23,7.14,7.14,0,0,0,.26,2.25,2.38,2.38,0,0,0,2.46,1.73,2.71,2.71,0,0,0,2.37-1.2.21.21,0,0,1,.32,0l1,.83a.21.21,0,0,1,.07.32,4.42,4.42,0,0,1-3.77,1.86,4.27,4.27,0,0,1-4.35-3,9.5,9.5,0,0,1-.34-2.81A9.32,9.32,0,0,1,245.38,55Z"/><path class="cls-2" d="M263.71,63.25a.22.22,0,0,1-.23-.23V56.58c0-1.77-.81-2.81-2.46-2.81a2.47,2.47,0,0,0-2.53,2.7V63a.22.22,0,0,1-.23.23h-1.47a.22.22,0,0,1-.23-.23V47.84a.22.22,0,0,1,.23-.23h1.47a.22.22,0,0,1,.23.23v5.64h0a3.49,3.49,0,0,1,3.08-1.5c2.4,0,3.82,1.63,3.82,4.14V63a.22.22,0,0,1-.23.23Z"/><path class="cls-2" d="M269.25,49.75a.22.22,0,0,1-.23-.23V47.84a.22.22,0,0,1,.23-.23h1.57a.22.22,0,0,1,.23.23v1.68a.22.22,0,0,1-.23.23Zm.05,13.5a.22.22,0,0,1-.23-.23V52.46a.22.22,0,0,1,.23-.23h1.47a.22.22,0,0,1,.23.23V63a.22.22,0,0,1-.23.23Z"/><path class="cls-2" d="M281.93,63.25a.22.22,0,0,1-.23-.23V56.58c0-1.77-.81-2.81-2.46-2.81a2.47,2.47,0,0,0-2.53,2.7V63a.22.22,0,0,1-.23.23H275a.22.22,0,0,1-.23-.23V52.46a.23.23,0,0,1,.23-.23h1.48a.23.23,0,0,1,.23.23v1h0a3.49,3.49,0,0,1,3.08-1.5c2.39,0,3.82,1.63,3.82,4.14V63a.22.22,0,0,1-.23.23Z"/><path class="cls-2" d="M287.47,49.75a.22.22,0,0,1-.23-.23V47.84a.22.22,0,0,1,.23-.23H289a.22.22,0,0,1,.23.23v1.68a.22.22,0,0,1-.23.23Zm0,13.5a.22.22,0,0,1-.23-.23V52.46a.22.22,0,0,1,.23-.23H289a.22.22,0,0,1,.23.23V63a.22.22,0,0,1-.23.23Z"/><path class="cls-2" d="M300.14,63.25a.22.22,0,0,1-.23-.23V56.58c0-1.77-.8-2.81-2.46-2.81a2.48,2.48,0,0,0-2.53,2.7V63a.22.22,0,0,1-.23.23h-1.47A.22.22,0,0,1,293,63V52.46a.22.22,0,0,1,.23-.23h1.47a.22.22,0,0,1,.23.23v1h0A3.5,3.5,0,0,1,298,52c2.39,0,3.81,1.63,3.81,4.14V63a.22.22,0,0,1-.23.23Z"/><path class="cls-2" d="M305.27,66a.21.21,0,0,1,0-.32l.95-1a.22.22,0,0,1,.34,0,3.68,3.68,0,0,0,2.6,1.11c1.82,0,2.78-.95,2.78-3V61.59h0a3.17,3.17,0,0,1-3.06,1.52,3.61,3.61,0,0,1-3.7-2.67,8.46,8.46,0,0,1-.37-2.89,8.52,8.52,0,0,1,.37-2.9,3.61,3.61,0,0,1,3.7-2.67,3.17,3.17,0,0,1,3.06,1.52h0v-1a.23.23,0,0,1,.23-.23h1.48a.22.22,0,0,1,.22.23V62.77c0,3.12-1.7,4.87-4.8,4.87A5,5,0,0,1,305.27,66Zm6.44-6.32a9.28,9.28,0,0,0,0-4.28,2.48,2.48,0,0,0-4.67,0,8.62,8.62,0,0,0,0,4.28,2.25,2.25,0,0,0,2.33,1.65A2.28,2.28,0,0,0,311.71,59.69Z"/><path class="cls-2" d="M322.48,61.55a.25.25,0,0,1,0-.35l1-1.19a.21.21,0,0,1,.33,0,7.15,7.15,0,0,0,4.37,1.61c2.16,0,3.44-1.08,3.44-2.66,0-1.34-.75-2.24-3.26-2.56l-.78-.11c-3-.41-4.6-1.86-4.6-4.32,0-2.79,2-4.58,5.1-4.58a8.3,8.3,0,0,1,4.76,1.45.21.21,0,0,1,.05.32l-.78,1.27a.23.23,0,0,1-.32,0A7,7,0,0,0,328,49.27c-1.9,0-3,1-3,2.53,0,1.31.87,2.18,3.29,2.5l.76.12c3.05.41,4.59,1.82,4.59,4.37,0,2.73-1.93,4.71-5.7,4.71A8.61,8.61,0,0,1,322.48,61.55Z"/><path class="cls-2" d="M336.48,60.54a8.36,8.36,0,0,1-.37-2.81,8.29,8.29,0,0,1,.37-2.78,4.66,4.66,0,0,1,8.69,0,8,8,0,0,1,.37,2.78,8.11,8.11,0,0,1-.37,2.81,4.67,4.67,0,0,1-8.69,0Zm6.83-.56a7,7,0,0,0,.25-2.25,6.89,6.89,0,0,0-.25-2.23,2.65,2.65,0,0,0-5,0,7.18,7.18,0,0,0-.25,2.23,7.28,7.28,0,0,0,.25,2.25,2.65,2.65,0,0,0,5,0Z"/><path class="cls-2" d="M351.29,63.36c-1.93,0-2.69-.92-2.69-2.89V47.84a.22.22,0,0,1,.23-.23h1.47a.22.22,0,0,1,.23.23V60.35c0,.92.35,1.22,1.11,1.22h.43a.22.22,0,0,1,.23.23v1.33a.22.22,0,0,1-.23.23Z"/><path class="cls-2" d="M361.94,63.25a.22.22,0,0,1-.23-.23V62h0a3.37,3.37,0,0,1-3,1.52c-2.42,0-3.82-1.65-3.82-4.16V52.46a.22.22,0,0,1,.23-.23h1.47a.22.22,0,0,1,.23.23v6.42c0,1.79.8,2.83,2.44,2.83A2.44,2.44,0,0,0,361.71,59V52.46a.22.22,0,0,1,.23-.23h1.47a.22.22,0,0,1,.23.23V63a.22.22,0,0,1-.23.23Z"/><path class="cls-2" d="M370.61,63.36c-2.14,0-3-1-3-3.12v-6.3a.12.12,0,0,0-.14-.14h-.92a.22.22,0,0,1-.23-.23V52.46a.22.22,0,0,1,.23-.23h.92c.09,0,.14,0,.14-.13V49a.22.22,0,0,1,.23-.23h1.47a.22.22,0,0,1,.23.23V52.1c0,.09,0,.13.14.13h1.74a.22.22,0,0,1,.23.23v1.11a.22.22,0,0,1-.23.23h-1.74c-.1,0-.14,0-.14.14v6.23c0,1.1.41,1.4,1.4,1.4h.48a.22.22,0,0,1,.23.23v1.33a.22.22,0,0,1-.23.23Z"/><path class="cls-2" d="M374.87,49.75a.22.22,0,0,1-.23-.23V47.84a.22.22,0,0,1,.23-.23h1.56a.22.22,0,0,1,.23.23v1.68a.22.22,0,0,1-.23.23Zm0,13.5a.22.22,0,0,1-.23-.23V52.46a.23.23,0,0,1,.23-.23h1.47a.23.23,0,0,1,.24.23V63a.22.22,0,0,1-.24.23Z"/><path class="cls-2" d="M380.09,60.54a8.36,8.36,0,0,1-.37-2.81,8.29,8.29,0,0,1,.37-2.78,4.66,4.66,0,0,1,8.69,0,8.29,8.29,0,0,1,.37,2.78,8.36,8.36,0,0,1-.37,2.81,4.67,4.67,0,0,1-8.69,0Zm6.83-.56a7.28,7.28,0,0,0,.25-2.25,7.18,7.18,0,0,0-.25-2.23,2.65,2.65,0,0,0-5,0,7.18,7.18,0,0,0-.25,2.23A7.28,7.28,0,0,0,382,60a2.65,2.65,0,0,0,5,0Z"/><path class="cls-2" d="M399.41,63.25a.22.22,0,0,1-.23-.23V56.58c0-1.77-.81-2.81-2.46-2.81a2.47,2.47,0,0,0-2.53,2.7V63a.22.22,0,0,1-.23.23h-1.47a.22.22,0,0,1-.23-.23V52.46a.22.22,0,0,1,.23-.23H394a.22.22,0,0,1,.23.23v1h0a3.49,3.49,0,0,1,3.08-1.5c2.39,0,3.82,1.63,3.82,4.14V63a.22.22,0,0,1-.23.23Z"/><path class="cls-2" d="M404,61.85a.24.24,0,0,1,0-.33l.94-1a.22.22,0,0,1,.32,0,5.33,5.33,0,0,0,3.41,1.27c1.61,0,2.41-.69,2.41-1.68s-.41-1.36-2.14-1.54l-1.17-.12c-2.16-.23-3.29-1.31-3.29-3.1,0-2.09,1.5-3.36,4.09-3.36a6.59,6.59,0,0,1,3.91,1.22.22.22,0,0,1,.05.32l-.78,1a.22.22,0,0,1-.32.05,5.82,5.82,0,0,0-3-.9c-1.38,0-2.09.62-2.09,1.52s.53,1.33,2.16,1.49l1.15.12c2.23.2,3.31,1.33,3.31,3.1,0,2.16-1.56,3.61-4.44,3.61A6.85,6.85,0,0,1,404,61.85Z"/></svg>