<?xml version="1.0" encoding="utf-8"?>
<!-- Generator: Adobe Illustrator 16.0.0, SVG Export Plug-In . SVG Version: 6.00 Build 0)  -->
<!DOCTYPE svg PUBLIC "-//W3C//DTD SVG 1.1//EN" "http://www.w3.org/Graphics/SVG/1.1/DTD/svg11.dtd">
<svg version="1.1" id="Layer_1" xmlns="http://www.w3.org/2000/svg" xmlns:xlink="http://www.w3.org/1999/xlink" x="0px" y="0px"
	 width="118.003px" height="53.855px" viewBox="0 0 118.003 53.855" enable-background="new 0 0 118.003 53.855"
	 xml:space="preserve">
<g>
	<g>
		<defs>
			<rect id="SVGID_1_" y="0" width="118.003" height="53.855"/>
		</defs>
		<clipPath id="SVGID_2_">
			<use xlink:href="#SVGID_1_"  overflow="visible"/>
		</clipPath>
		<path clip-path="url(#SVGID_2_)" fill="#FF4612" d="M2.964,18.571C3.577,11.342,0,9.151,0,9.151s0.844,3.066,0.227,10.931
			c-0.42,5.362,1.492,9.519,2.603,12.086c0.158,0.364,0.695,0.081,0.595-0.297C2.418,28.073,2.458,24.548,2.964,18.571"/>
	</g>
	<g>
		<defs>
			<rect id="SVGID_3_" y="0" width="118.003" height="53.855"/>
		</defs>
		<clipPath id="SVGID_4_">
			<use xlink:href="#SVGID_3_"  overflow="visible"/>
		</clipPath>
		<path clip-path="url(#SVGID_4_)" fill="#FF4612" d="M20.12,52.746c4.693-4.28,11.369-17.029,11.492-26.695
			c-1.084,0.32-3.233,1.477-4.028,5.05c-0.457,2.052-1.743,6.9-6.479,6.482c-6.567-0.579-5.615-12.994,4.668-11.869
			c4.86,0.532,5.649-2.964,5.649-3.432c-1.065,0.488-2.669,0.284-4.176,0.104c-9.265-1.114-13.713,4.191-13.713,10.246
			c0,3.635,2.363,6.688,5.027,8.388c1.417,0.902,0.398,1.785-0.655,1.026c-2.802-2.022-6.074-4.694-6.074-10.389
			c0-9.509,9.701-13.64,11.98-15.338c3.381-2.521,5.01-4.602,4.186-8.311c-1.338,2.463-4.624,4.615-7.076,5.918
			c-6.626,3.522-11.82,8.65-11.82,16.181c0,5.926,2.602,9.181,5.728,11.701c0.709,0.571-0.042,1.371-0.95,0.64
			c-4.975-4.01-6.617-8.45-6.617-14.155c0-10.78,13.592-20.527,7.48-28.291c0.085,7.927-10.165,14.85-10.165,27.964
			c0,5.888,2.364,11.732,8.955,16.354c3.883,2.724,4.433,5.843,3.865,8.665C17.143,54.509,18.989,53.777,20.12,52.746"/>
	</g>
	<g>
		<defs>
			<rect id="SVGID_5_" y="0" width="118.003" height="53.855"/>
		</defs>
		<clipPath id="SVGID_6_">
			<use xlink:href="#SVGID_5_"  overflow="visible"/>
		</clipPath>
		<path clip-path="url(#SVGID_6_)" fill="#FFFFFF" d="M56.236,22.278c-0.834,0-1.572,0.616-1.685,1.455
			c-0.149,1.11,0.854,2.075,1.954,1.896c0.976-0.159,1.63-1.168,1.363-2.125C57.666,22.774,56.98,22.278,56.236,22.278"/>
	</g>
	<g>
		<defs>
			<rect id="SVGID_7_" y="0" width="118.003" height="53.855"/>
		</defs>
		<clipPath id="SVGID_8_">
			<use xlink:href="#SVGID_7_"  overflow="visible"/>
		</clipPath>
		<path clip-path="url(#SVGID_8_)" fill="#FFFFFF" d="M112.057,31.574c0-3.313-1.54-4.564-4.892-4.564
			c-2.496,0-4.838,0.922-4.838,1.846c0,0.318,0.295,1.146,0.773,1.696c1.178-0.676,2.195-1.146,3.541-1.146
			c2.136,0,2.17,0.979,2.17,2.192c-3.498,0-7.234,0.736-7.234,4.217c0,2.327,1.396,3.748,3.819,3.748
			c1.688,0,2.625-0.621,3.664-1.299c0.444,1.425,2.448,1.223,3.501,0.755c-0.398-0.637-0.506-1.319-0.506-2.843L112.057,31.574
			L112.057,31.574z M108.813,36.24c-0.683,0.646-1.407,0.996-2.294,0.996c-2.107,0-2.199-2.34-0.948-3.181
			c0.786-0.527,2.229-0.688,3.242-0.688V36.24z"/>
	</g>
	<g>
		<defs>
			<rect id="SVGID_9_" y="0" width="118.003" height="53.855"/>
		</defs>
		<clipPath id="SVGID_10_">
			<use xlink:href="#SVGID_9_"  overflow="visible"/>
		</clipPath>
		<path clip-path="url(#SVGID_10_)" fill="#FFFFFF" d="M79.462,31.574c0-3.313-1.539-4.564-4.891-4.564
			c-2.496,0-4.839,0.922-4.839,1.846c0,0.318,0.295,1.146,0.774,1.696c1.178-0.676,2.195-1.146,3.541-1.146
			c2.136,0,2.17,0.979,2.17,2.192c-3.498,0-7.234,0.736-7.234,4.217c0,2.327,1.395,3.748,3.819,3.748
			c1.688,0,2.625-0.621,3.663-1.299c0.445,1.425,2.449,1.223,3.502,0.755c-0.398-0.637-0.506-1.319-0.506-2.843V31.574
			L79.462,31.574z M76.219,36.24c-0.683,0.646-1.407,0.996-2.294,0.996c-2.107,0-2.199-2.34-0.948-3.181
			c0.786-0.527,2.229-0.688,3.242-0.688V36.24z"/>
	</g>
	<g>
		<defs>
			<rect id="SVGID_11_" y="0" width="118.003" height="53.855"/>
		</defs>
		<clipPath id="SVGID_12_">
			<use xlink:href="#SVGID_11_"  overflow="visible"/>
		</clipPath>
		<path clip-path="url(#SVGID_12_)" fill="#FFFFFF" d="M45.693,22.278h-4.492v16.987c0.182,0.061,1.098,0.117,1.313,0.098
			c1.391-0.036,2.079-0.601,2.079-1.863v-4.304h1.27c3.872,0,6.737-1.715,6.737-5.834C52.6,23.446,49.3,22.278,45.693,22.278
			 M44.595,30.777V24.79c2.386-0.227,4.513,0.209,4.513,2.744C49.108,30.722,46.901,30.777,44.595,30.777"/>
	</g>
	<g>
		<defs>
			<rect id="SVGID_13_" y="0" width="118.003" height="53.855"/>
		</defs>
		<clipPath id="SVGID_14_">
			<use xlink:href="#SVGID_13_"  overflow="visible"/>
		</clipPath>
		<path clip-path="url(#SVGID_14_)" fill="#FFFFFF" d="M57.929,37.498c0,1.264-0.688,1.827-2.079,1.864
			c-0.215,0.02-1.13-0.038-1.313-0.099V29.129c0-1.265,0.688-1.828,2.079-1.865c0.215-0.02,1.131,0.039,1.313,0.098V37.498z"/>
	</g>
	<g>
		<defs>
			<rect id="SVGID_15_" y="0" width="118.003" height="53.855"/>
		</defs>
		<clipPath id="SVGID_16_">
			<use xlink:href="#SVGID_15_"  overflow="visible"/>
		</clipPath>
		<path clip-path="url(#SVGID_16_)" fill="#FFFFFF" d="M96.303,32.863c0-1.524-0.031-1.94-0.153-2.273
			c-0.529-1.446-3.578-1.01-3.578,0.474v6.436c0,1.266-0.688,1.828-2.078,1.864c-0.216,0.021-1.132-0.038-1.313-0.098v-6.4
			c0-1.525-0.031-1.941-0.153-2.274c-0.529-1.446-3.579-1.01-3.579,0.474v6.436c0,1.266-0.688,1.828-2.077,1.865
			c-0.217,0.021-1.132-0.039-1.313-0.099V27.361c1.391-0.196,2.928-0.178,3.216,1.184c1.354-1.92,5.967-2.354,6.85,0.519
			c0.819-1.56,2.627-2.179,4.348-2.03c2.92,0.25,3.215,2.639,3.226,5.556l0.001,4.909c0,1.266-0.688,1.828-2.078,1.864
			c-0.216,0.021-1.132-0.038-1.313-0.098v-6.401H96.303z"/>
	</g>
	<g>
		<defs>
			<rect id="SVGID_17_" y="0" width="118.003" height="53.855"/>
		</defs>
		<clipPath id="SVGID_18_">
			<use xlink:href="#SVGID_17_"  overflow="visible"/>
		</clipPath>
		<path clip-path="url(#SVGID_18_)" fill="#FFFFFF" d="M60.542,39.265c0.182,0.061,1.098,0.117,1.313,0.1
			c1.393-0.038,2.079-0.603,2.079-1.865v-6.022c0-1.309,1.963-2.229,3.666-0.798c0.417-0.695,0.823-1.792,0.823-2.435
			c0-1.385-2.928-1.994-4.639,0.289c-0.315-1.31-1.908-1.394-3.242-1.171V39.265z"/>
	</g>
	<g>
		<defs>
			<rect id="SVGID_19_" y="0" width="118.003" height="53.855"/>
		</defs>
		<clipPath id="SVGID_20_">
			<use xlink:href="#SVGID_19_"  overflow="visible"/>
		</clipPath>
		<path clip-path="url(#SVGID_20_)" fill="#FFFFFF" d="M118.003,22.376c-0.157-0.053-0.873-0.1-1.146-0.1
			c-1.496,0-2.245,0.557-2.245,1.87v15.118c0.185,0.061,1.099,0.117,1.313,0.1c1.391-0.038,2.078-0.603,2.078-1.865V22.376z"/>
	</g>
</g>
</svg>
