<?xml version="1.0" encoding="utf-8"?>
<!-- Generator: Adobe Illustrator 22.1.0, SVG Export Plug-In . SVG Version: 6.00 Build 0)  -->
<svg version="1.1" id="Layer_1" xmlns="http://www.w3.org/2000/svg" xmlns:xlink="http://www.w3.org/1999/xlink" x="0px" y="0px"
	 viewBox="0 0 1994.8 994.8" style="enable-background:new 0 0 1994.8 994.8;" xml:space="preserve">
<style type="text/css">
	.st0{fill:none;}
	.st1{fill:#010101;}
	.st2{fill:#D61F2D;}
</style>
<g>
	<rect x="-5.2" class="st0" width="2000" height="994.8"/>
	<g>
		<path class="st1" d="M203.1,230.5h-29.7v50.3H148V140.3h55.1c32.3,0,49.5,18,49.5,45S235.4,230.5,203.1,230.5z M202.1,162.7h-28.7
			v45.4h28.7c17,0,24.8-9.1,24.8-22.6C226.9,172,219.1,162.7,202.1,162.7z"/>
		<path class="st1" d="M343,282.4c-10.7,0-16.6-6.7-17.4-14.5c-4.8,8.3-16.6,15.5-31.3,15.5c-24.6,0-37.2-15.5-37.2-32.3
			c0-19.6,15.3-30.9,34.9-32.3l30.3-2.2v-6.3c0-9.7-3.4-16.2-17.4-16.2c-11.5,0-18.2,5.2-18.8,14.7h-24
			c1.4-23.2,19.8-33.5,42.8-33.5c17.6,0,32.7,5.5,38.6,21c2.6,6.5,3,13.9,3,20.8v38.2c0,4.8,1.6,6.5,5.7,6.5c1.6,0,3.2-0.4,3.2-0.4
			v18.2C351.1,281.4,348.9,282.4,343,282.4z M322.2,235l-26.2,2c-7.5,0.6-14.9,5.2-14.9,13.5c0,7.9,6.9,12.9,14.7,12.9
			c15.5,0,26.3-8.3,26.3-23.6V235z"/>
		<path class="st1" d="M436.7,280.8v-63.2c0-12.1-4-19.4-17-19.4c-8.7,0-14.5,5.5-17.8,13.1c-3.6,8.1-3.4,18.8-3.4,27.5v42h-24.8
			v-103h20.8l1.8,13.3c6.1-10.9,18.4-15.8,30.3-15.8c22,0,34.9,15.5,34.9,36.8v68.7H436.7z"/>
		<path class="st1" d="M482.3,323.8c-2.8,0-5.5,0-8.7-0.4c-3.2-0.4-6.7-1-11.3-2.2v-21c7.3,0.8,8.3,1.2,12.1,1.2
			c7.7,0,11.9-4.2,11.9-11.1V177.8h25v117.3C511.2,312.7,500.7,323.8,482.3,323.8z M485.2,163.1v-25.6h26.5v25.6H485.2z"/>
		<path class="st1" d="M538.7,163.5V138h26.5v25.6H538.7z M539.5,280.8v-103h25.2v103H539.5z"/>
		<path class="st1" d="M645.7,280.8h-26.4l-38.2-103h26.2l25.8,72.5l24.4-72.5H683L645.7,280.8z"/>
		<path class="st1" d="M776.7,282.4c-10.7,0-16.6-6.7-17.4-14.5c-4.8,8.3-16.6,15.5-31.3,15.5c-24.6,0-37.2-15.5-37.2-32.3
			c0-19.6,15.3-30.9,34.9-32.3l30.3-2.2v-6.3c0-9.7-3.4-16.2-17.4-16.2c-11.5,0-18.2,5.2-18.8,14.7h-24
			c1.4-23.2,19.8-33.5,42.8-33.5c17.6,0,32.7,5.5,38.6,21c2.6,6.5,3,13.9,3,20.8v38.2c0,4.8,1.6,6.5,5.7,6.5c1.6,0,3.2-0.4,3.2-0.4
			v18.2C784.8,281.4,782.6,282.4,776.7,282.4z M755.9,235l-26.2,2c-7.5,0.6-14.9,5.2-14.9,13.5c0,7.9,6.9,12.9,14.7,12.9
			c15.5,0,26.3-8.3,26.3-23.6V235z"/>
	</g>
	<g id="Logo_2_">
		<path id="Market_Intelligence_2_" class="st1" d="M269.4,842.8V717.3l-51.3,123.5h-9.1l-51.3-122.5v124.5h-10.1V702.5h14.4
			L214,827.2l50.9-124.7h14.6v140.3H269.4z M402.5,842.8c-13.2,2.9-20.4-6.3-20.4-18.8c-8.7,23.6-46.5,28.9-62.7,10.4
			c-7.5-8.5-9.2-22.1-4.2-32.2c5.5-11.3,18.7-16,30.5-16.8l36.4-2.6v-9.7c0-15.4-11.6-22.5-26.1-22.6c-13.9,0-27.4,6.6-28.5,21.8
			h-9.9c1.3-17,14.2-28.2,30.6-30.6c15.3-2.2,35,1.7,41.2,17.7c2.4,6,2.6,12.6,2.6,19v45.1c0,7.2,2.5,12.1,10.5,10.5V842.8z
			 M382.1,791.9l-35.4,2.2c-11.1,0.8-22.8,6.3-24,18.6c-1.1,10.7,4.7,19.1,14.9,22.2c25.5,7.8,44.6-13.7,44.6-37.8V791.9z
			 M482.6,753.3c-10.9-2.7-23.4-0.7-31.1,7.8c-8.1,9-10,22.5-10,34.1v47.5h-9.9v-99h8.7l1.2,20c5.7-17.3,24.5-23.1,41.2-20.4V753.3z
			 M577.8,842.8L543,790l-25.9,28.3v24.5H507V699.9h10.1V804l55.6-60.2h12.5l-35,38.2l39.8,60.8H577.8z M688.1,795.7h-75.6
			c0.2,10.6,3.4,21.4,10.3,29.7c11.1,13.2,33.5,14.4,45.5,1.8c3.9-3.9,6.4-8.7,7.5-14.1h10.3c-1.2,7.9-5.3,15.3-11.1,20.8
			c-16.5,16.5-44.7,14.8-59.8-2.6c-16.2-18.9-17.6-52.7-3-72.8c10.6-14.5,29.1-20.9,46.4-15.3c19.4,6.2,29.6,26.6,29.6,46
			L688.1,795.7z M678.2,786.6c-0.5-18.4-12.5-35.9-32.3-36c-19.9-0.1-33.3,17-33.3,36H678.2z M763.7,841.8
			c-9.6,2.3-21.5,4.5-30.6-0.8c-8.8-5.1-11.4-16.3-11.4-25.8v-62.3h-19.8v-9.1h19.8v-27.3l9.9-2.4v29.7h30.7v9.1h-30.7v61.9
			c0,7.1,1.2,15.2,8.3,18.5c7,3.3,16.6,1.1,23.8-0.3V841.8z M834.3,842.8V702.5h10.5v140.3H834.3z M954.1,842.8v-64.7
			c0-19.2-12.5-29.8-31.7-26.6c-20,3.3-26.7,24.1-26.7,41.9v49.5h-9.9v-99h8.7l1.2,18c6.9-16.5,27.2-23.2,43.6-19.6
			c16.9,3.7,24.6,18.8,24.6,35.2v65.3H954.1z M1048.1,841.8c-9.6,2.3-21.5,4.5-30.6-0.8c-8.8-5.1-11.4-16.3-11.4-25.8v-62.3h-19.8
			v-9.1h19.8v-27.3l9.9-2.4v29.7h30.7v9.1h-30.7v61.9c0,7.1,1.2,15.2,8.3,18.5c7,3.3,16.6,1.1,23.8-0.3V841.8z M1149.5,795.7h-75.6
			c0.2,10.6,3.4,21.4,10.3,29.7c11.1,13.2,33.5,14.4,45.5,1.8c3.9-3.9,6.4-8.7,7.5-14.1h10.3c-1.2,7.9-5.3,15.3-11.1,20.8
			c-16.5,16.5-44.7,14.8-59.8-2.6c-16.2-18.9-17.6-52.7-3-72.8c10.6-14.5,29.1-20.9,46.4-15.3c19.4,6.2,29.6,26.6,29.6,46
			L1149.5,795.7z M1139.6,786.6c-0.5-18.4-12.5-35.9-32.3-36c-19.9-0.1-33.3,17-33.3,36H1139.6z M1207.3,842.8
			c-15.6,3.9-28.7-2.7-28.7-19.8V699.9h9.9v122.7c0,11.8,8.9,13.3,18.8,11.5V842.8z M1262.5,842.8c-15.6,3.9-28.7-2.7-28.7-19.8
			V699.9h9.9v122.7c0,11.8,8.9,13.3,18.8,11.5V842.8z M1288.8,716.3v-13.9h13.9v13.9H1288.8z M1290.6,842.8v-99h10.5v99H1290.6z
			 M1423.2,857.6c0,6.9-2.6,13.5-7.5,18.4c-9.8,10.1-25.9,11.7-39.2,11.7c-12.8,0-27.3-2-36.8-11.5c-12.3-12.3-7.2-33.6,7.9-41
			c-18-5.5-14-27.2-0.6-35c-13-13.1-13.3-35.9,0-48.9c12.9-12.7,35.6-13.2,50.3-3.4c3.5-11.1,13.7-13.1,23.8-13.1v8.5
			c-8,0-15.6,0.8-17.4,10.3c11,12.8,10.6,33.8-1.4,45.8c-12,12-33.1,13.8-47.8,6.1c-9.3,3.7-14.9,16.8-3,21.6
			c4.1,1.5,8.9,1.6,13.3,1.6h21.6c10.2,0,21.7,2,29.1,9.7C1420.5,843.7,1423.2,850.3,1423.2,857.6z M1413.3,857.6
			c0-4.7-1.6-8.8-4.8-12.3c-4.6-4.9-12.6-7.3-23.9-7.3h-26.1c-13.8,3.5-23.2,21.8-11.1,32.9c7.8,7.9,21.9,8.1,32.2,7.9
			c9.7-0.3,21.3-1.4,28.6-8.7C1411.4,866.8,1413.3,862.3,1413.3,857.6z M1401.6,775.9c0-33.7-54.8-33.9-54.8,0
			C1346.8,809.4,1401.6,809.3,1401.6,775.9z M1521.6,795.7H1446c0.2,10.6,3.4,21.4,10.3,29.7c11.1,13.2,33.5,14.4,45.5,1.8
			c3.9-3.9,6.4-8.7,7.5-14.1h10.3c-1.2,7.9-5.3,15.3-11.1,20.8c-16.5,16.5-44.7,14.8-59.8-2.6c-16.3-18.9-17.6-52.7-3-72.8
			c10.6-14.5,29.1-20.9,46.4-15.3c19.4,6.2,29.6,26.6,29.6,46L1521.6,795.7z M1511.7,786.6c-0.5-18.4-12.5-35.9-32.3-36
			c-19.8-0.1-33.3,17-33.3,36H1511.7z M1619.6,842.8v-64.7c0-19.2-12.5-29.8-31.7-26.6c-20,3.3-26.7,24.1-26.7,41.9v49.5h-9.9v-99
			h8.7l1.2,18c6.9-16.5,27.2-23.2,43.6-19.6c16.9,3.7,24.6,18.8,24.6,35.2v65.3H1619.6z M1739.7,811.5c-4.5,32.1-44.9,45-67.7,22.2
			c-19.4-19.4-19.4-61.3,0-80.8c22.8-22.8,63.1-10.5,67.3,21.8H1729c-3.6-23.4-33.4-31.7-49.9-15.2c-15.5,16-15.5,51.9,0,67.9
			c16.5,17.3,46.1,6.8,50.1-15.8H1739.7z M1845,795.7h-75.6c0.2,10.6,3.4,21.4,10.3,29.7c11.1,13.2,33.5,14.4,45.5,1.8
			c3.9-3.9,6.4-8.7,7.5-14.1h10.3c-1.2,7.9-5.3,15.3-11.1,20.8c-16.5,16.5-44.7,14.8-59.8-2.6c-16.3-18.9-17.6-52.7-3-72.8
			c10.6-14.5,29.1-20.9,46.4-15.3c19.4,6.2,29.6,26.6,29.6,46L1845,795.7z M1835.1,786.6c-0.5-18.4-12.5-35.9-32.3-36
			c-19.8-0.1-33.3,17-33.3,36H1835.1z"/>
		<path id="Wordmark_2_" class="st2" d="M258.2,586.9c0,10.8-3.7,21-11.5,28.7c-10.8,10.8-26.4,14.4-41.2,14.7
			c-15.6,0.4-31.7-3.4-43.5-14.1c-9-8.2-14.4-19.9-14.4-32h25.6c0,6.3,2.7,12.5,7.2,16.9c6.1,6.1,15.4,7.4,23.7,7.4
			c8-0.1,17.5-1.3,23.3-7.4c6.2-6.7,8.3-18.7,0.1-24.9c-8.6-6.5-20.8-6-31-7c-10.6-1-21.5-2.8-30.3-9.1c-8.5-6-13.8-15.4-14.9-25.7
			c-1.3-12.3,3.1-23.5,11.8-32.1c10-10,24.9-14.2,38.7-14.5c14.2-0.3,29.6,3.4,40.2,13.4c8.2,7.7,13.7,18,14,29.3h-25.6
			c-0.3-5-2.6-9.9-6-13.6c-5.2-5.5-14.2-7.5-21.5-7.4c-7.8,0.1-16.2,1.7-21.8,7.6c-6.7,7.3-6.5,19.7,2.9,24.6
			c4.7,2.4,10.5,2.6,15.6,3.2c5.7,0.6,11.5,1.1,17.2,1.9c10.9,1.4,21.7,4.6,29.8,12.3C254.4,566.1,258.2,576.3,258.2,586.9z
			 M366.6,628l-9.7-10.9c-16.2,14.3-41,18.8-60.8,9.7c-19-8.7-28.9-30.9-21.6-50.8c3.8-10.4,12.9-18.5,22.2-24.2
			c-9.3-9.8-16.2-20.6-14.5-34.6c1.5-12.2,9.8-22.8,21.3-27.2c12.3-4.7,27.5-3.8,38.8,3.1c10.9,6.8,16.2,18.7,15.3,31.3
			c-1.2,15.8-13.1,26.1-25.9,33.6l23.9,26c2.7-5.1,3-11.3,3.5-16.9c0.5-5.6,0.4-11.3,0.4-16.9H395v19.2h-15.9
			c-0.5,10.7-2.4,21.8-8.3,30.9l25.4,27.6H366.6z M310.9,567c-6.5,4-13.4,8.1-15.6,15.9c-1.9,7.1-0.2,15.1,5,20.3
			c10.3,10.6,32.4,9.4,42.1-1.5L310.9,567z M335,522.2c0-5.8-2.6-11-8.1-13.5c-5.6-2.6-12.7-1.8-17.6,1.8
			c-4.8,3.6-6.1,10.2-4.3,15.8c2.1,6.7,7.5,11.6,12.3,16.4C325.7,538.1,335,533.1,335,522.2z M517,534.2c0,12.5-4.1,25-13.7,33.3
			c-9.6,8.2-22.5,11-34.8,11h-29.1v49.3h-24.9V490.1h54c12.3,0,25.2,2.8,34.8,10.9C513,509.3,517,521.8,517,534.2z M491.8,534.4
			c0-6.3-2-12.8-6.9-17.2c-4.7-4.2-11.3-5.2-17.4-5.2h-28.2v44.5h28.2c6,0,12.7-1,17.4-5.1C489.7,547.2,491.8,540.7,491.8,534.4z
			 M664,627.8l-2.9-15.1c-6.8,12.8-23.3,18-36.8,17.6c-14.5-0.4-28.6-4.4-38.7-15.3c-14.6-15.1-17.9-35.7-17.9-55.9
			c0-20.2,3-40.4,17.9-55.3c21.1-21.1,60.7-22,81.8-0.4c7.4,7.7,11.9,17.1,12.6,27.8h-25.6c-0.5-4.9-3-8.8-6-12.6
			c-10.7-12.4-33.9-10.6-44.5,1c-9.9,10.4-10.7,26.6-10.7,40.1c0.1,13.3,1.2,29.6,10.9,39.7c10.4,11.4,32.2,12,42.9,0.8
			c7.1-7.4,8.9-16.8,8.9-26.8h-32.8v-20.8h57.1v75.4H664z M740.9,627.6c-9.1,1.9-18.9,2.3-27.2-2.6c-8.4-4.9-11.1-14-11.1-23.3
			V487.4h24.5v110.3c0,3.1,0.6,7,3.6,8.6c3.1,1.7,6.8,0.9,10.2,0.9V627.6z M844,577.3c0,13.7-3.3,26.4-11.8,37.3
			c-17.2,21-53.5,21-70.7,0c-16.3-20.7-16.2-53.9,0-74.6c17.2-21,53.5-21,70.7,0C840.6,550.9,844,563.7,844,577.3z M819.3,577.3
			c0-8.8-0.9-18.6-7.2-25.4c-7.9-8.5-22.8-8.6-30.7,0c-6.3,6.8-7.2,16.6-7.2,25.4c0,8.8,0.9,18.6,7.2,25.4c7.9,8.6,22.8,8.5,30.7,0
			C818.4,596,819.3,586.2,819.3,577.3z M956,577.5c0,16.5-4.8,33.4-18.1,44.1c-14.5,12.1-41.9,12.3-52.8-4.9l-1.6,11.1h-21V487.6
			h24.3v46.6c5.7-6.9,15.6-9.5,24.2-9.9c9.6-0.4,19.4,1.8,26.9,8.1C949.9,542.5,956,557.5,956,577.5z M931.3,577.1
			c0-8.5-1.1-17.5-6.4-24.5c-5.2-6.2-12.5-8.9-20.5-7.7c-7.7,1.1-13.1,6.6-15.9,13.6c-3,7.6-3.3,16.7-2.5,24.8
			c0.8,7.8,2.5,15.8,8.4,21.3c8.9,8.2,23.1,6,30.5-2.9C930.2,594.9,931.3,585.7,931.3,577.1z M1063.8,626.7
			c-11,4.8-27.6,3.5-29.1-11.5c-9,15.9-33.2,18.6-48.5,11.7c-8.6-3.8-15.1-10.9-17.6-20c-2.5-9.3-0.8-19.6,5.3-27.1
			c6.7-8.4,17.4-12,27.8-12.8l29.7-2.1v-6.2c0-4.5-1-9.8-4.6-12.8c-3.1-2.6-7.6-3-11.4-3.1c-9.5-0.2-18.9,3.6-19.5,14.4h-23.5
			c0.6-9.2,4.2-17.9,11.4-23.8c7-5.7,16.1-8.1,24.9-8.8c17-1.3,36.6,2.9,43.4,20.4c2.6,6.5,2.9,13.5,2.9,20.4v37.5
			c0,4.4,2.9,7.8,7.8,6.2c0.4,0,0.7-0.1,1-0.2V626.7z M1031.3,583l-25.6,1.9c-6.8,0.5-13.8,4.5-14.5,11.8c-0.7,7.5,5,13.1,12.3,13.9
			c6.8,0.8,14.5-1.1,20-5.3c5.6-4.3,7.9-10.9,7.9-17.7V583z M1117.1,627.6c-9.2,1.9-19.2,2.3-27.5-2.8c-8.2-5-10.7-13.9-10.7-23
			V487.4h24.5v110.3c0,3.1,0.6,7,3.6,8.6c3.1,1.7,6.8,0.9,10.2,0.9V627.6z"/>
		<rect id="Bar_2_" x="147.7" y="421.8" class="st1" width="969.4" height="24.9"/>
	</g>
</g>
</svg>
